<?xml version="1.0" encoding="ISO-8859-1" standalone="no"?>
<!DOCTYPE svg PUBLIC "-//W3C//DTD SVG 20010904//EN"
"http://www.w3.org/TR/2001/REC-SVG-20010904/DTD/svg10.dtd">
<svg xmlns="http://www.w3.org/2000/svg"
xmlns:xlink="http://www.w3.org/1999/xlink" xml:space="preserve"
width="380px" height="380px"
viewBox="-10 -5 1930 1085"
zoomAndPan="disable" >
<line x1="251" x2="119" y1="48" y2="128" stroke="rgb(255,0,0)" fill="rgb(255,0,0)" opacity="1.00"/>
<line x1="251" x2="151" y1="48" y2="12" stroke="rgb(255,0,0)" fill="rgb(255,0,0)" opacity="1.00"/>
<line x1="251" x2="380" y1="48" y2="0" stroke="rgb(255,0,0)" fill="rgb(255,0,0)" opacity="1.00"/>
<line x1="119" x2="151" y1="128" y2="12" stroke="rgb(255,0,0)" fill="rgb(255,0,0)" opacity="1.00"/>
<line x1="119" x2="65" y1="128" y2="247" stroke="rgb(0,0,0)" fill="rgb(0,0,0)" opacity="1.00"/>
<line x1="119" x2="0" y1="128" y2="183" stroke="rgb(0,0,0)" fill="rgb(0,0,0)" opacity="1.00"/>
<line x1="65" x2="0" y1="247" y2="183" stroke="rgb(0,0,0)" fill="rgb(0,0,0)" opacity="1.00"/>
<rect x="241" y="43" width="20" height="10" fill="rgb(0,0,255)" stroke="rgb(0,0,0)" opacity="1.00"/>
<rect x="109" y="123" width="20" height="10" fill="rgb(0,0,255)" stroke="rgb(0,0,0)" opacity="1.00"/>
<rect x="141" y="7" width="20" height="10" fill="rgb(0,0,255)" stroke="rgb(0,0,0)" opacity="1.00"/>
<rect x="370" y="-5" width="20" height="10" fill="rgb(0,0,255)" stroke="rgb(0,0,0)" opacity="1.00"/>
<rect x="55" y="242" width="20" height="10" fill="rgb(0,0,255)" stroke="rgb(0,0,0)" opacity="1.00"/>
<rect x="-10" y="178" width="20" height="10" fill="rgb(0,0,255)" stroke="rgb(0,0,0)" opacity="1.00"/>
<rect x="0" y="0" width="380" height="380" stroke-width="10" stroke="rgb(0,255,0)" fill-opacity="0"/>
<line x1="0" y1="264" x2="221" y2="0" style="stroke: rgb(255,255,0); stroke-width: 10; stroke-dasharray: 9, 5;"/>
</svg>gb(0,0,0)" opacity="1.00"/>
<line x1="107" x2="155" y1="110" y2="198" stroke="rgb(0,0,0)" fill="rgb(0,0,0)" opacity="1.00"/>
<rect x="97" y="105" width="20" height="10" fill="rgb(0,0,255)" stroke="rgb(0,0,0)" opacity="1.00"/>
<rect x="17" y="163" width="20" height="10" fill="rgb(0,0,255)" stroke="rgb(0,0,0)" opacity="1.00"/>
<rect x="46" y="200" width="20" height="10" fill="rgb(0,0,255)" stroke="rgb(0,0,0)" opacity="1.00"/>
<rect x="89" y="-5" width="20" height="10" fill="rgb(0,0,255)" stroke="rgb(0,0,0)" opacity="1.00"/>
<rect x="102" y="215" width="20" height="10" fill="rgb(0,0,255)" stroke="rgb(0,0,0)" opacity="1.00"/>
<rect x="191" y="48" width="20" height="10" fill="rgb(0,0,255)" stroke="rgb(0,0,0)" opacity="1.00"/>
<rect x="141" y="4" width="20" height="10" fill="rgb(0,0,255)" stroke="rgb(0,0,0)" opacity="1.00"/>
<rect x="88" y="171" width="20" height="10" fill="rgb(0,0,255)" stroke="rgb(0,0,0)" opacity="1.00"/>
<rect x="145" y="50" width="20" height="10" fill="rgb(0,0,255)" stroke="rgb(0,0,0)" opacity="1.00"/>
<rect x="-10" y="124" width="20" height="10" fill="rgb(0,0,255)" stroke="rgb(0,0,0)" opacity="1.00"/>
<rect x="-1" y="62" width="20" height="10" fill="rgb(0,0,255)" stroke="rgb(0,0,0)" opacity="1.00"/>
<rect x="72" y="35" width="20" height="10" fill="rgb(0,0,255)" stroke="rgb(0,0,0)" opacity="1.00"/>
<rect x="200" y="133" width="20" height="10" fill="rgb(0,0,255)" stroke="rgb(0,0,0)" opacity="1.00"/>
<rect x="174" y="164" width="20" height="10" fill="rgb(0,0,255)" stroke="rgb(0,0,0)" opacity="1.00"/>
<rect x="26" y="100" width="20" height="10" fill="rgb(0,0,255)" stroke="rgb(0,0,0)" opacity="1.00"/>
<rect x="190" y="94" width="20" height="10" fill="rgb(0,0,255)" stroke="rgb(0,0,0)" opacity="1.00"/>
<rect x="29" y="22" width="20" height="10" fill="rgb(0,0,255)" stroke="rgb(0,0,0)" opacity="1.00"/>
<rect x="145" y="193" width="20" height="10" fill="rgb(0,0,255)" stroke="rgb(0,0,0)" opacity="1.00"/>
<rect x="0" y="0" width="220" height="220" stroke-width="10" stroke="rgb(0,255,0)" fill-opacity="0"/>
<line x1="0" y1="233" x2="195" y2="0" style="stroke: rgb(255,255,0); stroke-width: 10; stroke-dasharray: 9, 5;"/>
</svg>