<?xml version="1.0" encoding="ISO-8859-1" standalone="no"?>
<!DOCTYPE svg PUBLIC "-//W3C//DTD SVG 20010904//EN"
"http://www.w3.org/TR/2001/REC-SVG-20010904/DTD/svg10.dtd">
<svg xmlns="http://www.w3.org/2000/svg"
xmlns:xlink="http://www.w3.org/1999/xlink" xml:space="preserve"
width="620px" height="620px"
viewBox="-10 -5 1930 1085"
zoomAndPan="disable" >
<line x1="410" x2="195" y1="78" y2="209" stroke="rgb(255,0,0)" fill="rgb(255,0,0)" opacity="1.00"/>
<line x1="410" x2="247" y1="78" y2="20" stroke="rgb(255,0,0)" fill="rgb(255,0,0)" opacity="1.00"/>
<line x1="410" x2="620" y1="78" y2="0" stroke="rgb(255,0,0)" fill="rgb(255,0,0)" opacity="1.00"/>
<line x1="195" x2="247" y1="209" y2="20" stroke="rgb(0,0,0)" fill="rgb(0,0,0)" opacity="1.00"/>
<line x1="195" x2="106" y1="209" y2="404" stroke="rgb(255,0,0)" fill="rgb(255,0,0)" opacity="1.00"/>
<line x1="195" x2="0" y1="209" y2="299" stroke="rgb(255,0,0)" fill="rgb(255,0,0)" opacity="1.00"/>
<line x1="106" x2="0" y1="404" y2="299" stroke="rgb(255,0,0)" fill="rgb(255,0,0)" opacity="1.00"/>
<rect x="400" y="73" width="20" height="10" fill="rgb(0,0,255)" stroke="rgb(0,0,0)" opacity="1.00"/>
<rect x="185" y="204" width="20" height="10" fill="rgb(0,0,255)" stroke="rgb(0,0,0)" opacity="1.00"/>
<rect x="237" y="15" width="20" height="10" fill="rgb(0,0,255)" stroke="rgb(0,0,0)" opacity="1.00"/>
<rect x="610" y="-5" width="20" height="10" fill="rgb(0,0,255)" stroke="rgb(0,0,0)" opacity="1.00"/>
<rect x="96" y="399" width="20" height="10" fill="rgb(0,0,255)" stroke="rgb(0,0,0)" opacity="1.00"/>
<rect x="-10" y="294" width="20" height="10" fill="rgb(0,0,255)" stroke="rgb(0,0,0)" opacity="1.00"/>
<rect x="0" y="0" width="620" height="620" stroke-width="10" stroke="rgb(0,255,0)" fill-opacity="0"/>
<line x1="0" y1="927" x2="248" y2="0" style="stroke: rgb(255,255,0); stroke-width: 10; stroke-dasharray: 9, 5;"/>
</svg>