<?xml version="1.0" encoding="ISO-8859-1" standalone="no"?>
<!DOCTYPE svg PUBLIC "-//W3C//DTD SVG 20010904//EN"
"http://www.w3.org/TR/2001/REC-SVG-20010904/DTD/svg10.dtd">
<svg xmlns="http://www.w3.org/2000/svg"
xmlns:xlink="http://www.w3.org/1999/xlink" xml:space="preserve"
width="200px" height="200px"
viewBox="-10 -5 1930 1085"
zoomAndPan="disable" >
<line x1="97" x2="25" y1="100" y2="153" stroke="rgb(0,0,0)" fill="rgb(0,0,0)" opacity="1.00"/>
<line x1="97" x2="51" y1="100" y2="186" stroke="rgb(255,0,0)" fill="rgb(255,0,0)" opacity="1.00"/>
<line x1="97" x2="90" y1="100" y2="0" stroke="rgb(0,0,0)" fill="rgb(0,0,0)" opacity="1.00"/>
<line x1="97" x2="102" y1="100" y2="200" stroke="rgb(255,0,0)" fill="rgb(255,0,0)" opacity="1.00"/>
<line x1="97" x2="183" y1="100" y2="48" stroke="rgb(255,0,0)" fill="rgb(255,0,0)" opacity="1.00"/>
<line x1="97" x2="138" y1="100" y2="8" stroke="rgb(0,0,0)" fill="rgb(0,0,0)" opacity="1.00"/>
<line x1="97" x2="89" y1="100" y2="160" stroke="rgb(255,0,0)" fill="rgb(255,0,0)" opacity="1.00"/>
<line x1="97" x2="141" y1="100" y2="50" stroke="rgb(255,0,0)" fill="rgb(255,0,0)" opacity="1.00"/>
<line x1="97" x2="0" y1="100" y2="118" stroke="rgb(0,0,0)" fill="rgb(0,0,0)" opacity="1.00"/>
<line x1="97" x2="7" y1="100" y2="61" stroke="rgb(0,0,0)" fill="rgb(0,0,0)" opacity="1.00"/>
<line x1="97" x2="75" y1="100" y2="37" stroke="rgb(0,0,0)" fill="rgb(0,0,0)" opacity="1.00"/>
<line x1="97" x2="191" y1="100" y2="125" stroke="rgb(255,0,0)" fill="rgb(255,0,0)" opacity="1.00"/>
<line x1="97" x2="167" y1="100" y2="154" stroke="rgb(0,0,0)" fill="rgb(0,0,0)" opacity="1.00"/>
<line x1="97" x2="33" y1="100" y2="95" stroke="rgb(0,0,0)" fill="rgb(0,0,0)" opacity="1.00"/>
<line x1="97" x2="182" y1="100" y2="90" stroke="rgb(255,0,0)" fill="rgb(255,0,0)" opacity="1.00"/>
<line x1="97" x2="35" y1="100" y2="25" stroke="rgb(0,0,0)" fill="rgb(0,0,0)" opacity="1.00"/>
<line x1="97" x2="141" y1="100" y2="180" stroke="rgb(0,0,0)" fill="rgb(0,0,0)" opacity="1.00"/>
<rect x="87" y="95" width="20" height="10" fill="rgb(0,0,255)" stroke="rgb(0,0,0)" opacity="1.00"/>
<rect x="15" y="148" width="20" height="10" fill="rgb(0,0,255)" stroke="rgb(0,0,0)" opacity="1.00"/>
<rect x="41" y="181" width="20" height="10" fill="rgb(0,0,255)" stroke="rgb(0,0,0)" opacity="1.00"/>
<rect x="80" y="-5" width="20" height="10" fill="rgb(0,0,255)" stroke="rgb(0,0,0)" opacity="1.00"/>
<rect x="92" y="195" width="20" height="10" fill="rgb(0,0,255)" stroke="rgb(0,0,0)" opacity="1.00"/>
<rect x="173" y="43" width="20" height="10" fill="rgb(0,0,255)" stroke="rgb(0,0,0)" opacity="1.00"/>
<rect x="128" y="3" width="20" height="10" fill="rgb(0,0,255)" stroke="rgb(0,0,0)" opacity="1.00"/>
<rect x="79" y="155" width="20" height="10" fill="rgb(0,0,255)" stroke="rgb(0,0,0)" opacity="1.00"/>
<rect x="131" y="45" width="20" height="10" fill="rgb(0,0,255)" stroke="rgb(0,0,0)" opacity="1.00"/>
<rect x="-10" y="113" width="20" height="10" fill="rgb(0,0,255)" stroke="rgb(0,0,0)" opacity="1.00"/>
<rect x="-2" y="56" width="20" height="10" fill="rgb(0,0,255)" stroke="rgb(0,0,0)" opacity="1.00"/>
<rect x="65" y="32" width="20" height="10" fill="rgb(0,0,255)" stroke="rgb(0,0,0)" opacity="1.00"/>
<rect x="181" y="120" width="20" height="10" fill="rgb(0,0,255)" stroke="rgb(0,0,0)" opacity="1.00"/>
<rect x="157" y="149" width="20" height="10" fill="rgb(0,0,255)" stroke="rgb(0,0,0)" opacity="1.00"/>
<rect x="23" y="90" width="20" height="10" fill="rgb(0,0,255)" stroke="rgb(0,0,0)" opacity="1.00"/>
<rect x="172" y="85" width="20" height="10" fill="rgb(0,0,255)" stroke="rgb(0,0,0)" opacity="1.00"/>
<rect x="25" y="20" width="20" height="10" fill="rgb(0,0,255)" stroke="rgb(0,0,0)" opacity="1.00"/>
<rect x="131" y="175" width="20" height="10" fill="rgb(0,0,255)" stroke="rgb(0,0,0)" opacity="1.00"/>
<rect x="0" y="0" width="200" height="200" stroke-width="10" stroke="rgb(0,255,0)" fill-opacity="0"/>
<line x1="1920" y1="1362" x2="-26" y2="0" style="stroke: rgb(255,255,0); stroke-width: 10; stroke-dasharray: 9, 5;"/>
</svg>