<?xml version="1.0" encoding="ISO-8859-1" standalone="no"?>
<!DOCTYPE svg PUBLIC "-//W3C//DTD SVG 20010904//EN"
"http://www.w3.org/TR/2001/REC-SVG-20010904/DTD/svg10.dtd">
<svg xmlns="http://www.w3.org/2000/svg"
xmlns:xlink="http://www.w3.org/1999/xlink" xml:space="preserve"
width="400px" height="400px"
viewBox="-10 -5 1930 1085"
zoomAndPan="disable" >
<line x1="264" x2="126" y1="50" y2="134" stroke="rgb(255,0,0)" fill="rgb(255,0,0)" opacity="1.00"/>
<line x1="264" x2="159" y1="50" y2="12" stroke="rgb(255,0,0)" fill="rgb(255,0,0)" opacity="1.00"/>
<line x1="264" x2="400" y1="50" y2="0" stroke="rgb(255,0,0)" fill="rgb(255,0,0)" opacity="1.00"/>
<line x1="126" x2="159" y1="134" y2="12" stroke="rgb(255,0,0)" fill="rgb(255,0,0)" opacity="1.00"/>
<line x1="126" x2="68" y1="134" y2="260" stroke="rgb(0,0,0)" fill="rgb(0,0,0)" opacity="1.00"/>
<line x1="126" x2="0" y1="134" y2="193" stroke="rgb(0,0,0)" fill="rgb(0,0,0)" opacity="1.00"/>
<line x1="68" x2="0" y1="260" y2="193" stroke="rgb(0,0,0)" fill="rgb(0,0,0)" opacity="1.00"/>
<rect x="254" y="45" width="20" height="10" fill="rgb(0,0,255)" stroke="rgb(0,0,0)" opacity="1.00"/>
<rect x="116" y="129" width="20" height="10" fill="rgb(0,0,255)" stroke="rgb(0,0,0)" opacity="1.00"/>
<rect x="149" y="7" width="20" height="10" fill="rgb(0,0,255)" stroke="rgb(0,0,0)" opacity="1.00"/>
<rect x="390" y="-5" width="20" height="10" fill="rgb(0,0,255)" stroke="rgb(0,0,0)" opacity="1.00"/>
<rect x="58" y="255" width="20" height="10" fill="rgb(0,0,255)" stroke="rgb(0,0,0)" opacity="1.00"/>
<rect x="-10" y="188" width="20" height="10" fill="rgb(0,0,255)" stroke="rgb(0,0,0)" opacity="1.00"/>
<rect x="0" y="0" width="400" height="400" stroke-width="10" stroke="rgb(0,255,0)" fill-opacity="0"/>
<line x1="0" y1="280" x2="234" y2="0" style="stroke: rgb(255,255,0); stroke-width: 10; stroke-dasharray: 9, 5;"/>
</svg>gb(0,0,0)" opacity="1.00"/>
<line x1="117" x2="169" y1="120" y2="216" stroke="rgb(0,0,0)" fill="rgb(0,0,0)" opacity="1.00"/>
<rect x="107" y="115" width="20" height="10" fill="rgb(0,0,255)" stroke="rgb(0,0,0)" opacity="1.00"/>
<rect x="20" y="178" width="20" height="10" fill="rgb(0,0,255)" stroke="rgb(0,0,0)" opacity="1.00"/>
<rect x="51" y="218" width="20" height="10" fill="rgb(0,0,255)" stroke="rgb(0,0,0)" opacity="1.00"/>
<rect x="98" y="-5" width="20" height="10" fill="rgb(0,0,255)" stroke="rgb(0,0,0)" opacity="1.00"/>
<rect x="113" y="235" width="20" height="10" fill="rgb(0,0,255)" stroke="rgb(0,0,0)" opacity="1.00"/>
<rect x="209" y="53" width="20" height="10" fill="rgb(0,0,255)" stroke="rgb(0,0,0)" opacity="1.00"/>
<rect x="155" y="5" width="20" height="10" fill="rgb(0,0,255)" stroke="rgb(0,0,0)" opacity="1.00"/>
<rect x="97" y="187" width="20" height="10" fill="rgb(0,0,255)" stroke="rgb(0,0,0)" opacity="1.00"/>
<rect x="159" y="55" width="20" height="10" fill="rgb(0,0,255)" stroke="rgb(0,0,0)" opacity="1.00"/>
<rect x="-10" y="136" width="20" height="10" fill="rgb(0,0,255)" stroke="rgb(0,0,0)" opacity="1.00"/>
<rect x="-1" y="68" width="20" height="10" fill="rgb(0,0,255)" stroke="rgb(0,0,0)" opacity="1.00"/>
<rect x="80" y="39" width="20" height="10" fill="rgb(0,0,255)" stroke="rgb(0,0,0)" opacity="1.00"/>
<rect x="219" y="145" width="20" height="10" fill="rgb(0,0,255)" stroke="rgb(0,0,0)" opacity="1.00"/>
<rect x="190" y="180" width="20" height="10" fill="rgb(0,0,255)" stroke="rgb(0,0,0)" opacity="1.00"/>
<rect x="29" y="110" width="20" height="10" fill="rgb(0,0,255)" stroke="rgb(0,0,0)" opacity="1.00"/>
<rect x="209" y="103" width="20" height="10" fill="rgb(0,0,255)" stroke="rgb(0,0,0)" opacity="1.00"/>
<rect x="32" y="25" width="20" height="10" fill="rgb(0,0,255)" stroke="rgb(0,0,0)" opacity="1.00"/>
<rect x="159" y="211" width="20" height="10" fill="rgb(0,0,255)" stroke="rgb(0,0,0)" opacity="1.00"/>
<rect x="0" y="0" width="240" height="240" stroke-width="10" stroke="rgb(0,255,0)" fill-opacity="0"/>
<line x1="0" y1="132" x2="748" y2="0" style="stroke: rgb(255,255,0); stroke-width: 10; stroke-dasharray: 9, 5;"/>
</svg>