<?xml version="1.0" encoding="ISO-8859-1" standalone="no"?>
<!DOCTYPE svg PUBLIC "-//W3C//DTD SVG 20010904//EN"
"http://www.w3.org/TR/2001/REC-SVG-20010904/DTD/svg10.dtd">
<svg xmlns="http://www.w3.org/2000/svg"
xmlns:xlink="http://www.w3.org/1999/xlink" xml:space="preserve"
width="800px" height="800px"
viewBox="0 0 1920 1080"
zoomAndPan="disable" >
<line x1="495" x2="607" y1="354" y2="354" stroke="rgb(0,0,0)" fill="rgb(0,0,0)" opacity="1.00"/>
<line x1="495" x2="360" y1="354" y2="422" stroke="rgb(0,0,0)" fill="rgb(0,0,0)" opacity="1.00"/>
<line x1="495" x2="607" y1="399" y2="399" stroke="rgb(0,0,0)" fill="rgb(0,0,0)" opacity="1.00"/>
<line x1="495" x2="360" y1="399" y2="422" stroke="rgb(0,0,0)" fill="rgb(0,0,0)" opacity="1.00"/>
<line x1="494" x2="607" y1="444" y2="444" stroke="rgb(0,0,0)" fill="rgb(0,0,0)" opacity="1.00"/>
<line x1="494" x2="360" y1="444" y2="422" stroke="rgb(0,0,0)" fill="rgb(0,0,0)" opacity="1.00"/>
<line x1="495" x2="607" y1="489" y2="489" stroke="rgb(0,0,0)" fill="rgb(0,0,0)" opacity="1.00"/>
<line x1="495" x2="360" y1="489" y2="422" stroke="rgb(0,0,0)" fill="rgb(0,0,0)" opacity="1.00"/>
<line x1="360" x2="225" y1="422" y2="354" stroke="rgb(0,0,0)" fill="rgb(0,0,0)" opacity="1.00"/>
<line x1="360" x2="225" y1="422" y2="399" stroke="rgb(0,0,0)" fill="rgb(0,0,0)" opacity="1.00"/>
<line x1="360" x2="225" y1="422" y2="444" stroke="rgb(0,0,0)" fill="rgb(0,0,0)" opacity="1.00"/>
<line x1="360" x2="225" y1="422" y2="489" stroke="rgb(0,0,0)" fill="rgb(0,0,0)" opacity="1.00"/>
<line x1="225" x2="112" y1="354" y2="354" stroke="rgb(0,0,0)" fill="rgb(0,0,0)" opacity="1.00"/>
<line x1="225" x2="112" y1="399" y2="399" stroke="rgb(0,0,0)" fill="rgb(0,0,0)" opacity="1.00"/>
<line x1="225" x2="112" y1="444" y2="444" stroke="rgb(0,0,0)" fill="rgb(0,0,0)" opacity="1.00"/>
<line x1="225" x2="112" y1="489" y2="489" stroke="rgb(0,0,0)" fill="rgb(0,0,0)" opacity="1.00"/>
<rect x="485" y="349" width="20" height="10" fill="rgb(0,0,255)" stroke="rgb(0,0,0)" opacity="1.00"/>
<rect x="597" y="349" width="20" height="10" fill="rgb(0,0,255)" stroke="rgb(0,0,0)" opacity="1.00"/>
<rect x="485" y="394" width="20" height="10" fill="rgb(0,0,255)" stroke="rgb(0,0,0)" opacity="1.00"/>
<rect x="597" y="394" width="20" height="10" fill="rgb(0,0,255)" stroke="rgb(0,0,0)" opacity="1.00"/>
<rect x="484" y="439" width="20" height="10" fill="rgb(0,0,255)" stroke="rgb(0,0,0)" opacity="1.00"/>
<rect x="597" y="439" width="20" height="10" fill="rgb(0,0,255)" stroke="rgb(0,0,0)" opacity="1.00"/>
<rect x="485" y="484" width="20" height="10" fill="rgb(0,0,255)" stroke="rgb(0,0,0)" opacity="1.00"/>
<rect x="597" y="484" width="20" height="10" fill="rgb(0,0,255)" stroke="rgb(0,0,0)" opacity="1.00"/>
<rect x="350" y="417" width="20" height="10" fill="rgb(0,0,255)" stroke="rgb(0,0,0)" opacity="1.00"/>
<rect x="215" y="349" width="20" height="10" fill="rgb(0,0,255)" stroke="rgb(0,0,0)" opacity="1.00"/>
<rect x="102" y="349" width="20" height="10" fill="rgb(0,0,255)" stroke="rgb(0,0,0)" opacity="1.00"/>
<rect x="215" y="394" width="20" height="10" fill="rgb(0,0,255)" stroke="rgb(0,0,0)" opacity="1.00"/>
<rect x="102" y="394" width="20" height="10" fill="rgb(0,0,255)" stroke="rgb(0,0,0)" opacity="1.00"/>
<rect x="215" y="439" width="20" height="10" fill="rgb(0,0,255)" stroke="rgb(0,0,0)" opacity="1.00"/>
<rect x="102" y="439" width="20" height="10" fill="rgb(0,0,255)" stroke="rgb(0,0,0)" opacity="1.00"/>
<rect x="215" y="484" width="20" height="10" fill="rgb(0,0,255)" stroke="rgb(0,0,0)" opacity="1.00"/>
<rect x="102" y="484" width="20" height="10" fill="rgb(0,0,255)" stroke="rgb(0,0,0)" opacity="1.00"/>
<rect x="0" y="0" width="800" height="800" stroke-width="10" stroke="rgb(0,255,0)" fill-opacity="0"/>
<line x1="360" y1="0" x2="360" y2="1080" style="stroke: rgb(255,255,0); stroke-width: 10; stroke-dasharray: 9, 5;"/>
</svg>